<?xml version="1.0" encoding="UTF-8" standalone="no"?>
<!-- Created with Inkscape (http://www.inkscape.org/) -->

<svg
   xmlns:dc="http://purl.org/dc/elements/1.1/"
   xmlns:cc="http://creativecommons.org/ns#"
   xmlns:rdf="http://www.w3.org/1999/02/22-rdf-syntax-ns#"
   xmlns:svg="http://www.w3.org/2000/svg"
   xmlns="http://www.w3.org/2000/svg"
   xmlns:sodipodi="http://sodipodi.sourceforge.net/DTD/sodipodi-0.dtd"
   xmlns:inkscape="http://www.inkscape.org/namespaces/inkscape"
   width="48"
   height="48"
   viewBox="0 0 48 48"
   id="svg2"
   version="1.1"
   inkscape:version="0.91 r13725"
   sodipodi:docname="favicon.svg"
   inkscape:export-filename="/Users/Kento_E/Desktop/favicon.png"
   inkscape:export-xdpi="90"
   inkscape:export-ydpi="90">
  <defs
     id="defs4" />
  <sodipodi:namedview
     id="base"
     pagecolor="#ffffff"
     bordercolor="#666666"
     borderopacity="1.0"
     inkscape:pageopacity="0.0"
     inkscape:pageshadow="2"
     inkscape:zoom="15.208333"
     inkscape:cx="12.821918"
     inkscape:cy="24"
     inkscape:document-units="px"
     inkscape:current-layer="layer1"
     showgrid="true"
     units="px"
     inkscape:window-width="1734"
     inkscape:window-height="944"
     inkscape:window-x="1611"
     inkscape:window-y="64"
     inkscape:window-maximized="0"
     showguides="true"
     inkscape:guide-bbox="true">
    <inkscape:grid
       type="xygrid"
       id="grid4010" />
    <sodipodi:guide
       position="26,6"
       orientation="0,1"
       id="guide4012" />
    <sodipodi:guide
       position="14,44"
       orientation="0,1"
       id="guide4024" />
    <sodipodi:guide
       position="24,18"
       orientation="1,0"
       id="guide4049" />
    <sodipodi:guide
       position="27,28"
       orientation="0,1"
       id="guide4059" />
  </sodipodi:namedview>
  <metadata
     id="metadata7">
    <rdf:RDF>
      <cc:Work
         rdf:about="">
        <dc:format>image/svg+xml</dc:format>
        <dc:type
           rdf:resource="http://purl.org/dc/dcmitype/StillImage" />
        <dc:title></dc:title>
      </cc:Work>
    </rdf:RDF>
  </metadata>
  <g
     inkscape:label="レイヤー 1"
     inkscape:groupmode="layer"
     id="layer1"
     transform="translate(0,-1004.3622)">
    <rect
       style="fill:#917c6f"
       id="rect3338"
       width="48.197262"
       height="48.197262"
       x="-0.13150685"
       y="1004.2307"
       ry="6.9041095" />
    <ellipse
       style="fill:#ff0000"
       id="path4006"
       cx="261.80072"
       cy="1012.9433"
       rx="4.1095891"
       ry="2.4000001"
       transform="matrix(0.96947011,0.2452095,-0.2452095,0.96947011,0,0)" />
    <path
       sodipodi:type="star"
       style="fill:#000000;stroke:#ffffff;stroke-width:0.48907232;stroke-miterlimit:4;stroke-dasharray:none;stroke-opacity:1"
       id="path4020"
       sodipodi:sides="3"
       sodipodi:cx="5.8410959"
       sodipodi:cy="1012.4663"
       sodipodi:r1="5"
       sodipodi:r2="2.5"
       sodipodi:arg1="0"
       sodipodi:arg2="1.0471976"
       inkscape:flatsided="false"
       inkscape:rounded="0"
       inkscape:randomized="0"
       d="m 10.841096,1012.4663 -3.7500002,2.1651 -3.7499999,2.165 0,-4.3301 0,-4.3301 3.7500001,2.165 z"
       inkscape:transform-center-x="-1.0984179"
       transform="matrix(0.87873435,0,0,0.55117153,-0.01722571,450.34699)" />
    <path
       style="fill:#e9c6af"
       d="m 22.035032,1041.1987 c -0.305662,-0.013 -1.122133,-0.074 -1.814378,-0.1357 -8.56381,-0.7655 -15.6310972,-4.0874 -18.242564,-8.5745 -1.16236287,-1.9973 -1.34495397,-4.2936 -0.5050354,-6.3512 1.3220578,-3.2387 4.9361672,-6.039 10.0955904,-7.822 8.079986,-2.7924 18.460371,-2.6038 26.183602,0.4759 1.75783,0.701 3.803457,1.8317 5.10241,2.8205 0.751136,0.5718 1.993841,1.7903 2.486874,2.4386 0.850271,1.1178 1.415614,2.3667 1.628786,3.5977 0.343754,1.9852 -0.223679,4.0331 -1.629651,5.8817 -0.554509,0.7291 -1.708262,1.8398 -2.623974,2.5261 -4.744185,3.5557 -12.499918,5.4843 -20.68166,5.1429 z"
       id="path4034"
       inkscape:connector-curvature="0" />
    <ellipse
       style="fill:#000000"
       id="path4040"
       cx="24.013697"
       cy="1017.6198"
       rx="2"
       ry="13.323288" />
    <ellipse
       style="fill:#e9c6af"
       id="path4044"
       cx="24.079453"
       cy="1039.9951"
       rx="9"
       ry="7" />
    <g
       id="g4094"
       transform="translate(0.06575342,0)">
      <ellipse
         transform="matrix(0.87830091,-0.47810827,0.47810827,0.87830091,0,0)"
         ry="5.5"
         rx="10"
         cy="906.52252"
         cx="-480.46005"
         id="path4036"
         style="fill:#000000" />
    </g>
    <ellipse
       transform="matrix(-0.87830091,-0.47810827,-0.47810827,0.87830091,0,0)"
       ry="5.5"
       rx="10"
       cy="883.854"
       cx="-522.51556"
       id="ellipse4038"
       style="fill:#000000" />
    <circle
       r="2.5"
       cy="1024.1553"
       cx="32.845207"
       id="circle4057"
       style="fill:#000000;fill-opacity:0;stroke:#ffffff;stroke-width:0.30000001;stroke-miterlimit:4;stroke-dasharray:none;stroke-opacity:1" />
    <ellipse
       style="fill:#000000;fill-opacity:0;stroke:#ffffff;stroke-width:0.30000001;stroke-miterlimit:4;stroke-dasharray:none;stroke-opacity:1"
       id="circle4937"
       cx="32.845207"
       cy="1024.1553"
       r="2.5" />
    <circle
       r="2.5"
       cy="1024.1553"
       cx="15.683563"
       id="circle4939"
       style="fill:#000000;fill-opacity:0;stroke:#ffffff;stroke-width:0.30000001;stroke-miterlimit:4;stroke-dasharray:none;stroke-opacity:1" />
    <g
       id="g4084"
       transform="translate(0.2630137,3.8136987)">
      <ellipse
         ry="3.5"
         rx="4.5"
         cy="1034.9526"
         cx="23.790413"
         id="path4042"
         style="fill:#000000" />
      <ellipse
         ry="0.52054793"
         rx="0.55342466"
         cy="1032.8059"
         cx="22.093151"
         id="path4061"
         style="fill:#ffffff" />
      <ellipse
         transform="matrix(0.52797983,-0.84925691,0.83889976,0.54428595,0,0)"
         ry="0.36650437"
         rx="1.0532206"
         cy="563.81036"
         cx="-856.62689"
         id="path4063"
         style="fill:#ffffff" />
    </g>
    <path
       style="fill:#ffffff;stroke-width:0.30000001;stroke-miterlimit:4;stroke-dasharray:none"
       d="m -9.520274,26.97974 c 0.047466,-0.01899 0.1041781,-0.01666 0.1260274,0.0052 0.021849,0.02185 -0.016986,0.03739 -0.086301,0.03453 -0.076599,-0.0032 -0.09218,-0.01874 -0.039726,-0.03973 z"
       id="path4921"
       inkscape:connector-curvature="0"
       transform="translate(0,1004.3622)" />
    <path
       style="fill:#ffffff;stroke-width:0.30000001;stroke-miterlimit:4;stroke-dasharray:none"
       d="m 15.62027,1036.1007 c -0.154408,-0.186 0.890604,-0.9834 1.995073,-1.5223 1.115246,-0.5441 2.41446,-0.9248 3.978082,-1.1657 0.88071,-0.1357 4.178703,-0.115 5.095891,0.032 1.047014,0.1678 2.135497,0.4208 2.926027,0.68 1.355139,0.4445 3.277214,1.5412 3.092032,1.7643 -0.06082,0.073 -0.167314,0.023 -0.580519,-0.2764 -1.287592,-0.9316 -3.383612,-1.6458 -5.766308,-1.9648 -1.177141,-0.1576 -3.5013,-0.1572 -4.658039,9e-4 -2.409616,0.3293 -4.547079,1.1719 -5.693925,2.2447 -0.25312,0.2367 -0.329891,0.2777 -0.388314,0.2073 z"
       id="path4923"
       inkscape:connector-curvature="0" />
    <g
       id="g4947"
       transform="translate(-0.2630137,2.8931507)">
      <path
         inkscape:connector-curvature="0"
         id="path4925"
         d="m 29.411292,1035.557 17.873306,-2.25"
         style="fill:#ffffff;fill-opacity:0;fill-rule:evenodd;stroke:#ffffff;stroke-width:0.63223112;stroke-linecap:round;stroke-linejoin:miter;stroke-miterlimit:4;stroke-dasharray:none;stroke-opacity:1" />
      <path
         style="fill:#ffffff;fill-opacity:0;fill-rule:evenodd;stroke:#ffffff;stroke-width:0.63223112;stroke-linecap:round;stroke-linejoin:miter;stroke-miterlimit:4;stroke-dasharray:none;stroke-opacity:1"
         d="m 29.411292,1036.2002 17.873306,2.25"
         id="path4927"
         inkscape:connector-curvature="0" />
    </g>
    <g
       id="g4951"
       transform="translate(-0.06575342,3.2219178)">
      <path
         style="fill:#ffffff;fill-opacity:0;fill-rule:evenodd;stroke:#ffffff;stroke-width:0.63223112;stroke-linecap:round;stroke-linejoin:miter;stroke-miterlimit:4;stroke-dasharray:none;stroke-opacity:1"
         d="m 19.076379,1035.294 -17.8733062,-2.25"
         id="path4929"
         inkscape:connector-curvature="0" />
      <path
         inkscape:connector-curvature="0"
         id="path4931"
         d="m 19.076379,1035.9372 -17.8733062,2.25"
         style="fill:#ffffff;fill-opacity:0;fill-rule:evenodd;stroke:#ffffff;stroke-width:0.63223112;stroke-linecap:round;stroke-linejoin:miter;stroke-miterlimit:4;stroke-dasharray:none;stroke-opacity:1" />
    </g>
    <path
       transform="matrix(-0.87873435,0,0,0.55117153,47.640857,450.34699)"
       inkscape:transform-center-x="1.0984184"
       d="m 10.841096,1012.4663 -3.7500002,2.1651 -3.7499999,2.165 0,-4.3301 0,-4.3301 3.7500001,2.165 z"
       inkscape:randomized="0"
       inkscape:rounded="0"
       inkscape:flatsided="false"
       sodipodi:arg2="1.0471976"
       sodipodi:arg1="0"
       sodipodi:r2="2.5"
       sodipodi:r1="5"
       sodipodi:cy="1012.4663"
       sodipodi:cx="5.8410959"
       sodipodi:sides="3"
       id="path4933"
       style="fill:#000000;stroke:#ffffff;stroke-width:0.48907232;stroke-miterlimit:4;stroke-dasharray:none;stroke-opacity:1"
       sodipodi:type="star" />
    <path
       sodipodi:type="star"
       style="fill:#ffffff;fill-opacity:1;stroke:none;stroke-width:0.69999999;stroke-linecap:round;stroke-miterlimit:4;stroke-dasharray:none;stroke-opacity:1"
       id="path4945"
       sodipodi:sides="3"
       sodipodi:cx="15"
       sodipodi:cy="1043.3622"
       sodipodi:r1="8.0622578"
       sodipodi:r2="4.0311289"
       sodipodi:arg1="0.51914611"
       sodipodi:arg2="1.5663437"
       inkscape:flatsided="true"
       inkscape:rounded="0"
       inkscape:randomized="0"
       d="M 22,1047.3622 8.0358984,1047.4244 14.964102,1035.3 Z"
       inkscape:transform-center-x="0.041446252"
       inkscape:transform-center-y="0.52964486"
       transform="matrix(-0.13350656,0.00473555,-0.00968746,-0.2731126,32.320201,1331.4615)" />
    <path
       transform="matrix(-0.13350656,0.00473555,-0.00968746,-0.2731126,39.947598,1331.4615)"
       inkscape:transform-center-y="0.52964486"
       inkscape:transform-center-x="0.041446252"
       d="M 22,1047.3622 8.0358984,1047.4244 14.964102,1035.3 Z"
       inkscape:randomized="0"
       inkscape:rounded="0"
       inkscape:flatsided="true"
       sodipodi:arg2="1.5663437"
       sodipodi:arg1="0.51914611"
       sodipodi:r2="4.0311289"
       sodipodi:r1="8.0622578"
       sodipodi:cy="1043.3622"
       sodipodi:cx="15"
       sodipodi:sides="3"
       id="path4955"
       style="fill:#ffffff;fill-opacity:1;stroke:none;stroke-width:0.69999999;stroke-linecap:round;stroke-miterlimit:4;stroke-dasharray:none;stroke-opacity:1"
       sodipodi:type="star" />
    <ellipse
       transform="matrix(-0.96947011,0.2452095,0.2452095,0.96947011,0,0)"
       ry="2.4000001"
       rx="4.1095891"
       cy="1024.8716"
       cx="215.71315"
       id="ellipse4957"
       style="fill:#ff0000" />
  </g>
</svg>
