<?xml version="1.0" encoding="utf-8"?>
<!-- Generator: Adobe Illustrator 16.0.3, SVG Export Plug-In . SVG Version: 6.00 Build 0)  -->
<!DOCTYPE svg PUBLIC "-//W3C//DTD SVG 1.1//EN" "http://www.w3.org/Graphics/SVG/1.1/DTD/svg11.dtd">
<svg version="1.1"
	 id="svg2" xmlns:dc="http://purl.org/dc/elements/1.1/" xmlns:cc="http://creativecommons.org/ns#" xmlns:rdf="http://www.w3.org/1999/02/22-rdf-syntax-ns#" xmlns:svg="http://www.w3.org/2000/svg" xmlns:sodipodi="http://sodipodi.sourceforge.net/DTD/sodipodi-0.dtd" xmlns:inkscape="http://www.inkscape.org/namespaces/inkscape" inkscape:export-ydpi="90" inkscape:export-xdpi="90" inkscape:export-filename="/Users/Kento_E/Desktop/favicon.png" sodipodi:docname="favicon.svg" inkscape:version="0.91 r13725"
	 xmlns="http://www.w3.org/2000/svg" xmlns:xlink="http://www.w3.org/1999/xlink" x="0px" y="0px" width="48px" height="48px"
	 viewBox="0 0 48 48" enable-background="new 0 0 48 48" xml:space="preserve">
<sodipodi:namedview  units="px" showguides="true" showgrid="true" inkscape:cy="24" inkscape:cx="12.821918" inkscape:zoom="15.208333" borderopacity="1.0" bordercolor="#666666" pagecolor="#ffffff" id="base" inkscape:guide-bbox="true" inkscape:window-maximized="0" inkscape:window-y="64" inkscape:window-x="1611" inkscape:window-height="944" inkscape:window-width="1734" inkscape:current-layer="layer1" inkscape:pageshadow="2" inkscape:document-units="px" inkscape:pageopacity="0.0">
	<inkscape:grid  type="xygrid" id="grid4010"></inkscape:grid>
	<sodipodi:guide  orientation="0,1" position="26,6" id="guide4012"></sodipodi:guide>
	<sodipodi:guide  orientation="0,1" position="14,44" id="guide4024"></sodipodi:guide>
	<sodipodi:guide  orientation="1,0" position="24,18" id="guide4049"></sodipodi:guide>
	<sodipodi:guide  orientation="0,1" position="27,28" id="guide4059"></sodipodi:guide>
</sodipodi:namedview>
<g id="layer1" transform="translate(0,-1004.3622)" inkscape:label="繝ｬ繧､繝､繝ｼ 1" inkscape:groupmode="layer">
	<path id="rect3338" fill="#917C6F" d="M6.772,1004.231h34.39c3.813,0,6.904,3.091,6.904,6.904v34.39
		c0,3.813-3.092,6.904-6.904,6.904H6.772c-3.813,0-6.904-3.092-6.904-6.904v-34.39C-0.131,1007.322,2.959,1004.231,6.772,1004.231z"
		/>
	
		<ellipse id="path4006" transform="matrix(0.2453 -0.9695 0.9695 0.2453 -1010.165 794.8751)" fill="#FF0000" cx="5.425" cy="1046.214" rx="2.4" ry="4.11"/>
	
		<path id="path4020" sodipodi:arg2="1.0471976" sodipodi:arg1="0" sodipodi:r2="2.5" sodipodi:r1="5" sodipodi:cy="1012.4663" sodipodi:cx="5.8410959" sodipodi:sides="3" sodipodi:type="star" inkscape:transform-center-x="-1.0984179" inkscape:randomized="0" inkscape:rounded="0" inkscape:flatsided="false" stroke="#FFFFFF" d="
		M11.925,1009.265l-4.503,1.631l-4.503,1.631v-3.262v-3.262l4.503,1.631L11.925,1009.265z"/>
	<path id="path4034" inkscape:connector-curvature="0" fill="#E9C6AF" d="M22.035,1041.198c-0.306-0.012-1.122-0.073-1.814-0.135
		c-8.564-0.766-15.631-4.088-18.243-8.574c-1.162-1.998-1.345-4.294-0.505-6.352c1.322-3.239,4.936-6.039,10.096-7.822
		c8.08-2.792,18.46-2.604,26.183,0.476c1.758,0.701,3.804,1.832,5.103,2.82c0.751,0.572,1.994,1.791,2.487,2.438
		c0.85,1.118,1.416,2.367,1.629,3.598c0.344,1.986-0.225,4.033-1.63,5.882c-0.555,0.729-1.708,1.84-2.624,2.525
		C37.973,1039.611,30.217,1041.54,22.035,1041.198z"/>
	<ellipse id="path4040" cx="24.014" cy="1017.62" rx="2" ry="13.323"/>
	<ellipse id="path4044" fill="#E9C6AF" cx="24.08" cy="1039.995" rx="9" ry="7"/>
	<g id="g4094" transform="translate(0.06575342,0)">
		
			<ellipse id="path4036" transform="matrix(-0.4781 -0.8783 0.8783 -0.4781 -884.1802 1526.4231)" cx="11.427" cy="1025.911" rx="5.5" ry="10"/>
	</g>
	
		<ellipse id="ellipse4038" transform="matrix(0.4781 -0.8783 0.8783 0.4781 -882.2737 567.4647)" cx="36.348" cy="1026.109" rx="5.5" ry="10.001"/>
	<circle id="circle4057" fill-opacity="0" stroke="#FFFFFF" cx="32.846" cy="1024.155" r="2.5"/>
	<ellipse id="circle4937" fill-opacity="0" stroke="#FFFFFF" stroke-width="0.3" cx="32.846" cy="1024.155" rx="0" ry="0"/>
	<circle id="circle4939" fill-opacity="0" stroke="#FFFFFF" cx="15.684" cy="1024.155" r="2.5"/>
	<g id="g4084" transform="translate(0.2630137,3.8136987)">
		<ellipse id="path4042" cx="23.79" cy="1034.953" rx="4.5" ry="3.5"/>
		<ellipse id="path4061" fill="#FFFFFF" cx="22.093" cy="1032.805" rx="0.554" ry="0.521"/>
		<path id="path4063" fill="#FFFFFF" d="M20.391,1034.172c0.307-0.494,0.694-0.806,0.863-0.695c0.17,0.109,0.059,0.6-0.249,1.094
			s-0.694,0.805-0.863,0.695C19.973,1035.155,20.084,1034.665,20.391,1034.172z"/>
	</g>
	<path id="path4921" inkscape:connector-curvature="0" fill="#FFFFFF" d="M-9.521,1031.342c0.048-0.019,0.104-0.017,0.126,0.005
		c0.021,0.022-0.017,0.038-0.086,0.035C-9.557,1031.378-9.573,1031.363-9.521,1031.342z"/>
	<path id="path4923" inkscape:connector-curvature="0" fill="#FFFFFF" d="M15.62,1036.1c-0.154-0.186,0.891-0.983,1.995-1.521
		c1.115-0.545,2.415-0.926,3.978-1.166c0.881-0.136,4.178-0.115,5.096,0.031c1.047,0.168,2.135,0.422,2.926,0.681
		c1.355,0.444,3.277,1.541,3.092,1.765c-0.061,0.072-0.167,0.022-0.58-0.277c-1.287-0.932-3.384-1.646-5.767-1.965
		c-1.177-0.157-3.501-0.156-4.658,0.002c-2.41,0.328-4.547,1.172-5.694,2.244C15.755,1036.13,15.679,1036.171,15.62,1036.1z"/>
	<g id="g4947" transform="translate(-0.2630137,2.8931507)">
		
			<path id="path4925" inkscape:connector-curvature="0" fill="#FFFFFF" fill-opacity="0" stroke="#FFFFFF" stroke-linecap="round" d="
			M29.411,1035.557l17.873-2.25"/>
		
			<path id="path4927" inkscape:connector-curvature="0" fill="#FFFFFF" fill-opacity="0" stroke="#FFFFFF" stroke-linecap="round" d="
			M29.411,1036.2l17.873,2.25"/>
	</g>
	<g id="g4951" transform="translate(-0.06575342,3.2219178)">
		
			<path id="path4929" inkscape:connector-curvature="0" fill="#FFFFFF" fill-opacity="0" stroke="#FFFFFF" stroke-linecap="round" d="
			M19.076,1035.295l-17.874-2.25"/>
		
			<path id="path4931" inkscape:connector-curvature="0" fill="#FFFFFF" fill-opacity="0" stroke="#FFFFFF" stroke-linecap="round" d="
			M19.076,1035.937l-17.874,2.25"/>
	</g>
	
		<path id="path4933" sodipodi:arg2="1.0471976" sodipodi:arg1="0" sodipodi:r2="2.5" sodipodi:r1="5" sodipodi:cy="1012.4663" sodipodi:cx="5.8410959" sodipodi:sides="3" sodipodi:type="star" inkscape:transform-center-x="1.0984184" inkscape:randomized="0" inkscape:rounded="0" inkscape:flatsided="false" stroke="#FFFFFF" d="
		M36.239,1009.068l4.233,1.533l4.232,1.533v-3.066v-3.065l-4.232,1.533L36.239,1009.068z"/>
	
		<path id="path4945" sodipodi:arg2="1.5663437" sodipodi:arg1="0.51914611" sodipodi:r2="4.0311289" sodipodi:r1="8.0622578" sodipodi:cy="1043.3622" sodipodi:cx="15" sodipodi:sides="3" sodipodi:type="star" inkscape:transform-center-y="0.52964486" inkscape:transform-center-x="0.041446252" inkscape:randomized="0" inkscape:rounded="0" inkscape:flatsided="true" fill="#FFFFFF" d="
		M18.07,1045.298l2.53-0.114l-1.096,4.541L18.07,1045.298z"/>
	
		<ellipse id="ellipse4957" transform="matrix(-0.2454 -0.9694 0.9694 -0.2454 -961.9584 1344.1306)" fill="#FF0000" cx="42.181" cy="1046.477" rx="2.4" ry="4.109"/>
	
		<path id="path4945_1_" sodipodi:arg2="1.5663437" sodipodi:arg1="0.51914611" sodipodi:r2="4.0311289" sodipodi:r1="8.0622578" sodipodi:cy="1043.3622" sodipodi:cx="15" sodipodi:sides="3" sodipodi:type="star" inkscape:transform-center-y="0.52964486" inkscape:transform-center-x="0.041446252" inkscape:randomized="0" inkscape:rounded="0" inkscape:flatsided="true" fill="#FFFFFF" d="
		M27.82,1045.299l2.529-0.114l-1.096,4.541L27.82,1045.299z"/>
</g>
</svg>
